<?xml version="1.0" encoding="utf-8"?>
<svg viewBox="74.719 144.052 167.551 120.654" xmlns="http://www.w3.org/2000/svg">
  <g id="SVGRepo_iconCarrier" transform="matrix(6.822328090667724, -0.014782999642193314, 0, 5.156542778015137, 174.0048396290069, 172.99513502411736)" style="">
    <g id="g-3" stroke-width="0" transform="matrix(0.974409, 0, 0, 1.239001, -17.068461, -16.081711)" style=""/>
    <g id="g-4" stroke-linecap="round" stroke-linejoin="round" transform="matrix(0.974409, 0, 0, 1.239001, -17.068461, -16.081711)" style=""/>
    <g id="g-5" transform="matrix(0.974409, 0, 0, 1.239001, -17.068461, -16.081711)" style="">
      <path d="M 8.84 17.011 L 16.84 17.011 C 18.218 17.074 19.991 18.292 20.191 19.991 L 20.84 25.511 M 8.84 17.011 C 6.082 16.398 5.095 17.317 4.342 11.893 L 4.197 10.822 M 8.874 16.976 L 8.84 22.011 C 8.84 23.897 8.84 24.84 9.426 25.425 C 10.012 26.011 10.955 26.011 12.84 26.011 C 14.726 26.011 15.669 26.011 16.254 25.425 C 16.84 24.84 16.84 23.897 16.84 22.011 L 16.84 21.011" stroke="#ffffff" stroke-width="1.5" stroke-linecap="round" style="fill: rgba(0, 0, 0, 0); transform-box: fill-box; transform-origin: 50% 50%;"/>
      <circle cx="12.75" cy="12.709" r="2.678" stroke="#ffffff" stroke-width="1.5" style="fill: rgba(0, 0, 0, 0);"/>
    </g>
  </g>
  <path d="M 199.586 256.608 C 187.807 255.549 222.383 195.644 211.2 193.371 L 237.642 192.972 L 199.586 256.608 Z" style="fill: rgb(254, 254, 254); paint-order: fill;" transform="matrix(0.9999999999999998, 0, 0, 0.9999999999999998, 0, 0)"/>
</svg>